<?xml version="1.0" encoding="UTF-8" standalone="no"?>
<svg
   xmlns:dc="http://purl.org/dc/elements/1.1/"
   xmlns:cc="http://creativecommons.org/ns#"
   xmlns:rdf="http://www.w3.org/1999/02/22-rdf-syntax-ns#"
   xmlns:svg="http://www.w3.org/2000/svg"
   xmlns="http://www.w3.org/2000/svg"
   xmlns:sodipodi="http://sodipodi.sourceforge.net/DTD/sodipodi-0.dtd"
   xmlns:inkscape="http://www.inkscape.org/namespaces/inkscape"
   inkscape:export-ydpi="24.000002"
   inkscape:export-xdpi="24.000002"
   inkscape:export-filename="C:\Users\bdwong\src\bdwong\goaccountable\icon\icon.png"
   sodipodi:docname="goaccountable.svg"
   inkscape:version="1.0 (4035a4fb49, 2020-05-01)"
   id="svg8"
   version="1.1"
   viewBox="0 0 128 128"
   height="128"
   width="128">
  <defs
     id="defs2" />
  <sodipodi:namedview
     inkscape:pagecheckerboard="false"
     inkscape:window-maximized="1"
     inkscape:window-y="-8"
     inkscape:window-x="1272"
     inkscape:window-height="1017"
     inkscape:window-width="1920"
     units="px"
     showgrid="true"
     inkscape:document-rotation="0"
     inkscape:current-layer="g945"
     inkscape:document-units="px"
     inkscape:cy="57.395388"
     inkscape:cx="72.995103"
     inkscape:zoom="2.8284271"
     inkscape:pageshadow="2"
     inkscape:pageopacity="0.0"
     borderopacity="1.0"
     bordercolor="#666666"
     pagecolor="#ffffff"
     id="base">
    <inkscape:grid
       id="grid833"
       type="xygrid" />
  </sodipodi:namedview>
  <metadata
     id="metadata5">
    <rdf:RDF>
      <cc:Work
         rdf:about="">
        <dc:format>image/svg+xml</dc:format>
        <dc:type
           rdf:resource="http://purl.org/dc/dcmitype/StillImage" />
        <dc:title></dc:title>
      </cc:Work>
    </rdf:RDF>
  </metadata>
  <g
     style="display:inline"
     inkscape:label="Background"
     id="layer3"
     inkscape:groupmode="layer" />
  <g
     style="display:inline"
     inkscape:label="Cross halo"
     inkscape:groupmode="layer"
     id="g945">
    <path
       inkscape:export-ydpi="24.000002"
       inkscape:export-xdpi="24.000002"
       d="M 55,15 V 40 H 30 v 15 h 25 v 60 H 70 V 55 H 95 V 40 H 70 V 15 Z"
       style="fill:#ffffff;stroke:none;stroke-width:0.994016"
       id="rect939" />
    <g
       inkscape:export-ydpi="24.000002"
       inkscape:export-xdpi="24.000002"
       style="fill:#000000"
       id="g952">
      <path
         d="m 60,40 c 0,1.666667 0,3.333333 0,5 -8.333333,0 -16.666667,0 -25,0 0,1.666667 0,3.333333 0,5 8.333333,0 16.666667,0 25,0 0,20 0,40 0,60 1.666667,0 3.333333,0 5,0 0,-20 0,-40 0,-60 8.333333,0 16.666667,0 25,0 0,-1.666667 0,-3.333333 0,-5 -8.333333,0 -16.666667,0 -25,0 0,-8.333333 0,-16.666667 0,-25 -1.666667,0 -3.333333,0 -5,0 0,6.666667 0,13.333333 0,20 z"
         style="opacity:0.2;fill:#000000;stroke:none;stroke-width:0.994016"
         id="path954" />
      <path
         d="m 57.5,40 c 0,0.833333 0,1.666667 0,2.5 -8.333333,0 -16.666667,0 -25,0 0,3.333333 0,6.666667 0,10 8.333333,0 16.666667,0 25,0 0,20 0,40 0,60 3.333333,0 6.666667,0 10,0 0,-20 0,-40 0,-60 8.333333,0 16.666667,0 25,0 0,-3.333333 0,-6.666667 0,-10 -8.333333,0 -16.666667,0 -25,0 0,-8.333333 0,-16.666667 0,-25 -3.333333,0 -6.666667,0 -10,0 0,7.5 0,15 0,22.5 z"
         style="opacity:0.2;fill:#000000;stroke:none;stroke-width:0.994016"
         id="path957" />
      <path
         id="path960"
         style="opacity:0.2;fill:#000000;stroke:none;stroke-width:0.994016"
         d="M 55,15 V 40 H 30 v 15 h 25 v 60 H 70 V 55 H 95 V 40 H 70 V 15 Z" />
      <path
         d="m 52.5,15 c 0,7.5 0,15 0,22.5 -8.333333,0 -16.666667,0 -25,0 0,6.666667 0,13.333333 0,20 8.333333,0 16.666667,0 25,0 0,20 0,40 0,60 6.666667,0 13.333333,0 20,0 0,-20 0,-40 0,-60 8.333333,0 16.666667,0 25,0 0,-6.666667 0,-13.333333 0,-20 -8.333333,0 -16.666667,0 -25,0 0,-8.333333 0,-16.666667 0,-25 -6.666667,0 -13.333333,0 -20,0 0,0.833333 0,1.666667 0,2.5 z"
         style="opacity:0.2;fill:#000000;stroke:none;stroke-width:0.994016"
         id="path962" />
      <path
         d="m 50,15 c 0,6.666667 0,13.333333 0,20 -8.333333,0 -16.666667,0 -25,0 0,8.333333 0,16.666667 0,25 8.333333,0 16.666667,0 25,0 0,20 0,40 0,60 8.333333,0 16.666667,0 25,0 0,-20 0,-40 0,-60 8.333333,0 16.666667,0 25,0 0,-8.333333 0,-16.666667 0,-25 -8.333333,0 -16.666667,0 -25,0 0,-8.333333 0,-16.666667 0,-25 -8.333333,0 -16.666667,0 -25,0 0,1.666667 0,3.333333 0,5 z"
         style="opacity:0.2;fill:#000000;stroke:none;stroke-width:0.994016"
         id="path965" />
    </g>
  </g>
  <g
     style="display:inline"
     id="layer1"
     inkscape:groupmode="layer"
     inkscape:label="Cross">
    <g
       inkscape:export-ydpi="24.000002"
       inkscape:export-xdpi="24.000002"
       style="fill:#ffcc00"
       transform="translate(0,-5)"
       id="g933">
      <rect
         style="fill:#ffcc00;stroke:none;stroke-width:0.994016"
         id="rect937"
         width="15"
         height="100"
         x="55"
         y="20" />
      <rect
         style="fill:#ffcc00;stroke:none;stroke-width:0.994016"
         id="rect935"
         width="65"
         height="15"
         x="30"
         y="45"
         ry="0" />
    </g>
  </g>
  <g
     style="display:inline"
     inkscape:label="People"
     id="layer2"
     inkscape:groupmode="layer">
    <g
       inkscape:export-ydpi="24.000002"
       inkscape:export-xdpi="24.000002"
       style="fill:#0000ff"
       id="g849">
      <circle
         style="fill:#0000ff;stroke:none;stroke-width:0.994016"
         id="path843"
         cx="35"
         cy="52.474876"
         r="10" />
      <path
         style="fill:#0000ff;stroke:none;stroke-width:1px;stroke-linecap:butt;stroke-linejoin:miter;stroke-opacity:1"
         d="m 20,90 3,-23 4.930718,-2 H 42.072854 L 45,66 h 15 v 5 H 43 l -1,4 v 10 l 8,30 H 40 L 35,95 30,115 H 20 L 28,85 V 75 l -1,-3 -2,18 z"
         id="path845"
         sodipodi:nodetypes="cccccccccccccccccccc" />
    </g>
    <g
       inkscape:export-ydpi="24.000002"
       inkscape:export-xdpi="24.000002"
       transform="matrix(-1,0,0,1,125,0)"
       id="use851"
       style="fill:#660080">
      <circle
         r="10"
         cy="52.474876"
         cx="35"
         id="circle984"
         style="fill:#660080;stroke:none;stroke-width:0.994016" />
      <path
         sodipodi:nodetypes="cccccccccccccccccccc"
         id="path986"
         d="m 20,90 3,-23 4.930718,-2 H 42.072854 L 45,66 h 15 v 5 H 43 l -1,4 v 10 l 8,30 H 40 L 35,95 30,115 H 20 L 28,85 V 75 l -1,-3 -2,18 z"
         style="fill:#660080;stroke:none;stroke-width:1px;stroke-linecap:butt;stroke-linejoin:miter;stroke-opacity:1" />
    </g>
  </g>
</svg>
